<?xml version="1.0" encoding="utf-8"?>
<svg viewBox="0 0 500 500" xmlns="http://www.w3.org/2000/svg">
  <path d="M 9.073 251.759 L 9.073 99.059 C 14.193 98.472 20.516 97.959 28.043 97.519 C 35.576 97.079 44.316 96.859 54.263 96.859 C 73.136 96.859 87.58 100.372 97.593 107.399 C 107.613 114.419 112.623 124.072 112.623 136.359 C 112.623 144.546 110.503 151.419 106.263 156.979 C 102.023 162.539 95.733 167.146 87.393 170.799 C 97.34 174.312 104.873 179.139 109.993 185.279 C 115.113 191.426 117.673 199.106 117.673 208.319 C 117.673 222.359 112.223 233.476 101.323 241.669 C 90.43 249.862 74.45 253.959 53.383 253.959 C 44.463 253.959 36.016 253.776 28.043 253.409 C 20.076 253.042 13.753 252.492 9.073 251.759 Z M 54.923 236.619 C 68.09 236.619 78.293 234.279 85.533 229.599 C 92.773 224.919 96.393 218.119 96.393 209.199 C 96.393 200.419 92.81 193.542 85.643 188.569 C 78.476 183.596 68.236 181.109 54.923 181.109 L 29.913 181.109 L 29.913 235.309 C 37.52 236.182 45.856 236.619 54.923 236.619 Z M 29.913 164.879 L 54.043 164.879 C 65.603 164.879 74.783 162.502 81.583 157.749 C 88.383 152.996 91.783 146.742 91.783 138.989 C 91.783 130.649 88.42 124.359 81.693 120.119 C 74.966 115.879 65.75 113.759 54.043 113.759 C 49.216 113.759 44.83 113.869 40.883 114.089 C 36.936 114.309 33.28 114.566 29.913 114.859 L 29.913 164.879 ZM 147.295 252.199 L 147.295 98.619 L 239.435 98.619 L 239.435 116.609 L 168.135 116.609 L 168.135 163.339 L 229.565 163.339 L 229.565 180.889 L 168.135 180.889 L 168.135 234.209 L 239.435 234.209 L 239.435 252.199 L 147.295 252.199 ZM 251.502 117.049 L 251.502 98.619 L 366.692 98.619 L 366.692 117.049 L 319.522 117.049 L 319.522 252.199 L 298.682 252.199 L 298.682 117.049 L 251.502 117.049 ZM 375.691 253.959 L 357.911 246.709 L 418.031 98.619 L 440.851 98.619 L 500.091 246.709 L 481.001 254.389 L 463.881 210.509 L 392.801 210.509 L 375.691 253.959 Z M 428.341 119.239 L 399.381 192.959 L 457.081 192.959 L 428.341 119.239 Z" transform="matrix(1, 0, 0, 1, 0, 0)" style="white-space: pre;"/>
</svg>