<svg id="Capa_1" enable-background="new 0 0 512 512" height="512" viewBox="0 0 512 512" width="512" xmlns="http://www.w3.org/2000/svg"><g><path d="m450.992 115c-.001-3.902-1.517-7.738-4.386-10.606l-100-100c-2.869-2.869-6.704-4.385-10.606-4.386v-.008h-220c-30.327 0-55 24.673-55 55v402c0 30.327 24.673 55 55 55h280c30.327 0 55-24.673 55-55v-342zm-99.992-63.787 48.787 48.787h-48.787zm45 430.787h-280c-13.785 0-25-11.215-25-25v-402c0-13.785 11.215-25 25-25h205v85c0 8.284 6.716 15 15 15h85v327c0 13.785-11.215 25-25 25z"/><path d="m355.43 189.335c-3.523-2.848-8.143-3.952-12.573-3.002l-140 30c-6.916 1.482-11.857 7.594-11.857 14.667v107.58c-4.695-1.665-9.742-2.58-15-2.58-24.813 0-45 20.187-45 45s20.187 45 45 45 45-20.187 45-45v-77.874l110-23.572v39.025c-4.695-1.665-9.742-2.58-15-2.58-24.813 0-45 20.187-45 45s20.187 45 45 45 45-20.187 45-45v-159.999c0-4.53-2.047-8.817-5.57-11.665zm-179.43 206.665c-8.271 0-15-6.729-15-15s6.729-15 15-15 15 6.729 15 15-6.729 15-15 15zm45-123.555v-29.319l110-23.571v29.319zm95 103.555c-8.271 0-15-6.729-15-15s6.729-15 15-15 15 6.729 15 15-6.729 15-15 15z"/></g></svg>